HIERARCHY
ROOT Hips
{
  OFFSET 13.6774 106.653 -34.4427
  CHANNELS 6 Xposition Yposition Zposition Zrotation Xrotation Yrotation
  JOINT ToSpine
  {
    OFFSET -2.69724 7.43032 -0.144315
    CHANNELS 3 Zrotation Xrotation Yrotation
    JOINT Spine
    {
      OFFSET -0.0310711 10.7595 1.96963
      CHANNELS 3 Zrotation Xrotation Yrotation
      JOINT Spine1
      {
        OFFSET 19.9056 3.91189 0.764692
        CHANNELS 3 Zrotation Xrotation Yrotation
        JOINT Neck
        {
          OFFSET 25.9749 7.03908 -0.130764
          CHANNELS 3 Zrotation Xrotation Yrotation
          JOINT Head
          {
            OFFSET 9.52751 0.295786 -0.907742
            CHANNELS 3 Zrotation Xrotation Yrotation
            End Site
            {
              OFFSET 16.4037 0.713936 2.7358
            }
          }
        }
        JOINT LeftShoulder
        {
          OFFSET 17.7449 4.33886 11.7777
          CHANNELS 3 Zrotation Xrotation Yrotation
          JOINT LeftArm
          {
            OFFSET 0.911315 1.27913 9.80584
            CHANNELS 3 Zrotation Xrotation Yrotation
            JOINT LeftForeArm
            {
              OFFSET 28.6126 1.18197 -3.53199
              CHANNELS 3 Zrotation Xrotation Yrotation
              JOINT LeftHand
              {
                OFFSET 27.5088 0.0218783 0.327423
                CHANNELS 3 Zrotation Xrotation Yrotation
                End Site
                {
                  OFFSET 18.6038 -0.000155887 0.382096
                }
              }
            }
          }
        }
        JOINT RightShoulder
        {
          OFFSET 17.1009 2.89543 -12.2328
          CHANNELS 3 Zrotation Xrotation Yrotation
          JOINT RightArm
          {
            OFFSET 1.4228 0.178766 -10.211
            CHANNELS 3 Zrotation Xrotation Yrotation
            JOINT RightForeArm
            {
              OFFSET 28.733 1.87905 2.64907
              CHANNELS 3 Zrotation Xrotation Yrotation
              JOINT RightHand
              {
                OFFSET 27.4588 0.290562 -0.101845
                CHANNELS 3 Zrotation Xrotation Yrotation
                End Site
                {
                  OFFSET 17.8396 -0.255518 -0.000602873
                }
              }
            }
          }
        }
      }
    }
  }
  JOINT LeftUpLeg
  {
    OFFSET -5.61296 -2.22332 -10.2353
    CHANNELS 3 Zrotation Xrotation Yrotation
    JOINT LeftLeg
    {
      OFFSET 2.56703 -44.7417 -7.93097
      CHANNELS 3 Zrotation Xrotation Yrotation
      JOINT LeftFoot
      {
        OFFSET 3.16933 -46.5642 -3.96578
        CHANNELS 3 Zrotation Xrotation Yrotation
        JOINT LeftToeBase
        {
          OFFSET 0.346054 -6.02161 12.8035
          CHANNELS 3 Zrotation Xrotation Yrotation
          End Site
          {
            OFFSET 0.134235 -1.35082 5.13018
          }
        }
      }
    }
  }
  JOINT RightUpLeg
  {
    OFFSET -5.7928 -1.72406 10.6446
    CHANNELS 3 Zrotation Xrotation Yrotation
    JOINT RightLeg
    {
      OFFSET -2.57161 -44.7178 -7.85259
      CHANNELS 3 Zrotation Xrotation Yrotation
      JOINT RightFoot
      {
        OFFSET -3.10148 -46.5936 -4.03391
        CHANNELS 3 Zrotation Xrotation Yrotation
        JOINT RightToeBase
        {
          OFFSET -0.0828122 -6.13587 12.8035
          CHANNELS 3 Zrotation Xrotation Yrotation
          End Site
          {
            OFFSET -0.131328 -1.35082 5.13018
          }
        }
      }
    }
  }
}
MOTION
Frames: 16
Frame Time: 0.03333333333333333
0.0000 93.1000 0.0000 90.6234 -15.4729 2.5428 -70.4221 0.0190 87.8939 52.3104 64.7716 37.0247 0.9079 19.8193 4.2264 -130.3393 45.9825 135.5728 -76.1604 74.1934 90.1663 -1.1860 -18.7086 -30.1979 -51.9051 28.1766 -141.8202 18.1792 -7.0181 -107.9707 -0.0507 0.0174 0.0246 -1.7790 7.9328 34.3201 -131.5032 5.0107 74.2296 20.0151 -9.7502 65.9817 -0.0877 0.1824 -0.0925 -65.1019 10.9514 85.0049 -6.2442 55.8201 -14.0595 2.7931 -24.9161 -1.8225 3.8001 -12.4817 21.7690 -65.1557 -15.1429 80.0252 1.7558 52.6331 -4.0823 -6.2960 -19.4915 0.9518 3.0006 -13.1663 -22.7846 
0.0000 93.1000 0.0000 90.8551 -15.3424 1.4452 -70.3629 0.1203 87.8590 52.2822 64.9312 37.3160 0.7204 19.4581 4.6962 -131.0138 45.5620 135.6508 -76.3940 74.2737 91.0659 -1.1433 -18.6922 -29.6826 -52.9183 28.1179 -142.7666 18.4726 -6.8469 -107.9165 -0.0835 -0.1156 0.2079 -1.5056 7.6877 33.2199 -131.6965 4.2865 73.6465 19.6184 -9.3238 66.9271 -0.0903 0.3203 0.0882 -64.3004 10.9793 84.8095 -6.1022 54.7717 -14.2059 3.0692 -23.9558 -2.0157 4.2612 -12.7262 22.0819 -65.1327 -15.2770 79.2025 1.7568 51.7143 -5.0501 -6.5822 -19.4234 1.0105 2.6896 -12.8625 -17.2378 
0.0000 93.1000 0.0000 89.7036 -15.2573 1.3078 -70.3282 0.3230 87.8699 54.3258 64.9139 34.1386 0.4936 19.2281 4.8371 -130.5541 45.1677 135.5047 -76.7353 75.0891 91.6796 -0.9348 -18.7966 -28.9255 -51.8841 28.0097 -144.0179 18.3102 -6.6107 -106.9908 -0.0303 0.0226 0.0913 -1.5277 7.2160 33.7669 -131.6616 4.0438 74.2425 19.8967 -8.5308 67.9557 0.0660 0.0358 0.1273 -63.9377 11.0964 84.2015 -6.0199 53.7289 -14.0517 2.9487 -23.7756 -2.2192 3.9090 -12.6565 21.0885 -65.0900 -15.8812 78.2735 1.7270 50.9761 -4.8412 -5.8994 -19.0339 1.2746 1.9496 -12.3872 -16.4449 
0.0000 93.1000 0.0000 88.7497 -15.4312 1.4461 -70.2731 0.2111 87.7331 54.4813 65.0217 32.4217 0.6723 18.9444 5.7399 -131.3696 44.8223 137.3570 -79.4074 75.7956 91.2958 -1.1875 -18.0157 -28.7484 -52.6394 28.1670 -144.9273 18.8138 -6.1516 -106.0196 0.1983 -0.1311 0.0754 -1.8423 6.8586 34.5358 -132.3008 4.0152 75.1229 18.6426 -7.8456 68.8907 -0.1325 0.0143 0.2097 -63.3484 10.9669 84.9338 -5.5310 52.9110 -14.2960 2.7015 -22.8917 -2.0652 3.9479 -12.6194 19.9688 -64.2886 -15.9698 78.2310 1.0638 50.0104 -4.6651 -5.9843 -18.0535 1.2122 2.1722 -12.0894 -13.3856 
0.0000 93.1000 0.0000 86.6765 -15.4992 0.2348 -70.2653 0.0217 87.8217 54.4091 65.0930 31.0788 0.7903 18.1204 6.9380 -132.8090 44.6019 139.4669 -82.0548 76.8586 94.2011 -1.4854 -17.8704 -28.0193 -52.8903 28.0111 -145.7191 19.8729 -5.8563 -105.1049 0.3436 -0.3500 0.4441 -1.9294 6.0440 34.8370 -133.6033 3.1015 76.3959 17.5035 -6.8252 70.6446 -0.2431 0.4727 0.5169 -63.0620 10.8001 86.1499 -4.7078 50.6287 -15.7066 1.7186 -21.0997 -1.7741 3.7618 -12.7946 18.0891 -62.9668 -16.0784 78.0850 1.0683 47.9123 -4.1569 -5.4865 -16.5574 0.6949 2.6761 -12.6803 -14.2816 
0.0000 93.1000 0.0000 84.6125 -16.3264 -0.9842 -70.1954 0.1145 87.9603 56.5768 65.0389 27.6975 0.8067 17.2173 8.6537 -132.7558 44.5266 140.0671 -84.0314 78.3044 95.9768 -1.2559 -17.9433 -28.0291 -53.9093 28.0298 -146.6725 20.9734 -5.9085 -103.8185 0.0866 -0.1359 0.2770 -1.9177 5.8631 35.9280 -133.4977 3.1687 78.3621 16.2775 -5.8153 72.8141 -0.2071 0.4212 0.4149 -62.1223 10.9853 86.0681 -4.6545 48.0882 -14.4680 0.9592 -19.9206 -1.9060 4.0004 -12.7869 16.0709 -60.9712 -14.9594 78.2491 0.9080 45.8097 -3.8922 -4.0650 -15.7445 0.9642 2.7638 -12.0694 -15.0399 
0.0000 93.1000 0.0000 82.6705 -16.4770 -1.1600 -70.1521 0.2401 88.0350 57.7914 65.8185 25.3411 1.2159 16.6562 9.5334 -132.6775 43.8313 143.2444 -87.6457 80.4563 100.5624 -0.9684 -17.0039 -27.3779 -54.7697 28.1549 -147.7578 21.2910 -5.9121 -102.9301 0.2201 -0.0011 0.4877 -1.6747 5.8091 36.7998 -134.4121 3.8633 79.3461 15.8449 -4.7412 74.7863 -0.2209 0.7184 0.7110 -61.0551 10.8877 87.0993 -3.7404 45.9906 -13.7578 0.4687 -17.8841 -2.0129 3.5715 -11.8029 13.9759 -59.5961 -14.8923 77.8798 0.9849 43.9902 -3.1683 -3.0774 -14.7588 0.8635 2.5984 -11.0448 -13.6731 
0.0000 93.1000 0.0000 80.8019 -17.2348 -2.1470 -70.1284 0.6828 88.1283 60.6595 66.3027 22.4929 2.0459 16.2507 9.0788 -132.7065 43.8332 145.3412 -92.6666 83.0835 108.5757 -0.2578 -16.6543 -27.1963 -55.8630 28.9952 -149.7853 22.0773 -5.7843 -102.6770 0.5071 0.1311 0.5228 -1.1203 5.6081 37.5205 -134.6718 3.0502 79.5661 16.6328 -3.9338 77.6894 -0.4659 1.0939 1.1637 -59.2202 11.1050 88.2997 -4.3891 44.1235 -12.8083 0.0082 -16.6210 -2.3109 3.4252 -11.8032 13.1491 -57.9208 -14.0707 77.8599 1.1887 41.1551 -2.8661 -3.1266 -11.9270 0.6410 3.1068 -11.1253 -13.2237 
0.0000 93.1000 0.0000 78.9695 -17.4882 -1.7296 -70.2265 0.8374 88.2329 63.6673 66.9888 19.4592 2.1905 15.9658 9.5524 -133.8016 43.6346 147.4678 -105.2507 85.2823 122.2500 -0.0106 -16.7283 -26.3543 -56.8036 29.0165 -149.9779 23.4401 -5.6070 -101.0280 0.3231 -0.0725 0.5743 -0.9152 4.9070 35.6516 -135.2691 0.3822 79.3277 16.3825 -3.6000 79.7463 -0.6722 1.1715 1.0151 -57.9138 11.7769 89.0287 -4.1743 41.1951 -12.8690 -0.9267 -14.8801 -2.3305 3.6145 -11.6207 11.1365 -56.7586 -13.8428 77.1848 1.1919 38.8292 -5.0088 -3.2544 -9.9458 0.1580 2.1827 -10.9928 -4.3122 
0.0000 93.1000 0.0000 77.0016 -18.1747 -3.2352 -70.1957 0.7869 88.2486 66.4841 67.1353 15.6584 2.8170 15.2177 10.0751 -135.8145 43.0584 151.6484 -138.6736 86.7162 150.5651 0.1441 -16.1471 -25.8747 -58.7483 29.3644 -150.7799 23.9492 -4.7647 -100.8341 0.4393 0.1132 0.6437 -0.7660 4.3869 35.3570 -136.5307 -0.6886 77.8926 16.4464 -3.2601 82.5740 -0.5270 1.2452 0.9917 -56.7485 11.8571 90.0806 -4.2748 39.0029 -12.6886 -2.0185 -12.9421 -2.1674 3.4275 -11.6476 8.8770 -54.7386 -13.8590 76.9044 -0.3915 35.9292 -4.4848 -3.6870 -6.7186 -0.1228 2.1990 -11.0730 -2.0987 
0.0000 93.1000 0.0000 75.0341 -18.3786 -4.0392 -70.2822 0.4313 88.0706 66.7723 67.9858 13.7897 3.0181 15.9807 9.7158 -131.9032 41.8061 147.6503 -141.1263 86.2529 156.8449 0.0822 -16.6370 -25.4074 -60.6203 29.2634 -151.7144 22.1116 -4.5861 -99.4578 -0.0279 0.3352 0.4932 -1.3975 4.2165 36.7563 -136.3405 -0.7808 78.9503 14.9283 -1.8536 84.7818 -0.1644 0.7976 0.5819 -55.2534 11.7276 90.5238 -3.0879 35.9652 -13.1472 -3.1091 -10.7584 -1.6555 3.5480 -11.8154 7.9611 -52.5424 -14.7510 76.1000 -0.1636 34.0628 -4.5497 -4.1077 -4.7762 -0.1975 1.3575 -10.8337 2.4499 
0.0000 93.1000 0.0000 72.1380 -19.2826 -5.0452 -70.2985 0.4595 87.9229 68.6526 67.9879 12.5124 3.2290 16.0226 8.5849 -128.2098 40.0167 144.7607 -133.1001 85.2558 153.5345 0.4148 -16.7572 -25.2353 -61.6118 28.1419 -151.6154 21.6758 -3.7923 -98.7188 0.3718 0.3930 0.6164 -1.1963 4.1110 38.1577 -137.4329 0.0995 79.6690 13.3953 -1.1259 86.7635 -0.5607 1.0130 1.2545 -54.0262 11.7403 92.1054 -3.1821 34.1310 -13.8099 -4.2251 -9.5790 -1.7822 3.2102 -10.8956 6.7756 -50.6162 -14.5907 75.0434 0.6438 31.0942 -2.9848 -4.0357 -2.8711 -0.2637 2.2048 -9.0622 4.2612 
0.0000 93.1000 0.0000 69.7163 -20.1381 -6.2107 -70.2465 -1.7856 87.7149 70.6708 68.0555 10.5237 2.5134 16.0855 8.4881 -129.9933 40.6979 149.7767 -158.5210 85.3093 177.6406 -0.9503 -17.2308 -25.2124 -63.5075 28.6254 -150.8158 21.9992 -4.3012 -98.1565 -0.3210 -0.8228 0.0324 -3.5566 4.8162 38.1236 -137.1438 -1.1982 77.9033 12.9956 -0.2499 89.2383 0.0074 0.1696 -0.6901 -52.1612 12.1019 93.4425 -2.6876 32.4984 -15.5575 -5.9336 -8.0597 -0.2659 4.1487 -10.7254 5.9714 -48.8467 -15.0785 75.2195 1.0517 28.3016 -4.5816 -2.9907 -1.2754 -0.3204 -1.1988 -7.3436 7.5699 
0.0000 93.1000 0.0000 68.3540 -20.5543 -8.0067 -70.2718 -0.7270 88.0009 74.5029 68.9718 7.7810 1.9608 16.5425 7.2156 -128.3100 39.9612 149.6023 -170.4854 85.2860 -166.5992 -1.0899 -16.7185 -25.2144 -63.4643 29.3214 -150.6462 21.6363 -3.8068 -98.5760 0.3003 -0.8449 0.6888 -2.0124 4.6637 37.8686 -138.1064 -2.0132 77.9012 13.5141 -0.3354 90.9948 -0.5752 1.5738 1.3555 -50.6485 11.8762 94.5243 -1.6072 31.9304 -16.3676 -6.5036 -7.8937 -0.3730 3.0441 -10.1996 4.8402 -47.4947 -13.9601 76.1581 2.5705 25.8728 -5.3264 -4.4868 1.3467 -0.7039 0.9665 -8.3594 7.1053 
0.0000 93.1000 0.0000 67.0010 -22.2752 -8.2886 -70.2604 1.0421 87.9913 75.5325 68.9519 6.0257 2.8744 16.8231 7.6329 -126.9680 39.7452 150.1800 -178.8171 85.1353 -158.8573 1.7974 -16.8917 -25.0558 -64.7695 29.3130 -149.7695 21.6846 -3.6740 -98.5028 -0.4304 1.6961 -1.9593 -1.2741 5.0687 37.9496 -138.4822 -1.3984 76.7739 12.6352 0.6946 92.5882 0.7918 -3.0301 -1.7537 -49.9753 12.3595 96.0907 -1.6502 30.2470 -16.4127 -5.4631 -7.1217 -1.8858 4.5708 -10.7611 3.2172 -46.7011 -14.1769 77.0264 1.7849 23.4667 -5.0551 -1.5853 1.8721 1.0472 -0.6267 -8.0138 6.1939 
0.0000 93.1000 0.0000 65.9766 -23.0460 -9.3128 -70.3390 0.0030 87.8485 76.5758 69.3895 4.8049 2.5722 17.4352 6.7384 -127.0485 39.4921 150.7563 170.0449 84.2924 -150.6389 -0.7046 -15.8197 -25.1219 -65.8766 29.2446 -150.4672 22.1979 -4.1289 -98.3726 -0.1773 -0.0611 0.1384 -1.9510 5.4153 37.8359 -138.2392 -2.4279 77.7113 13.6855 1.3128 92.9295 -0.1185 0.1998 0.2794 -49.7926 13.0363 97.5244 -1.2340 29.7993 -15.7507 -6.1279 -6.9615 -0.4948 3.6815 -9.8526 1.3697 -45.6233 -13.3924 77.6571 2.1277 22.7110 -4.5949 -4.1901 1.9481 -0.1972 -0.0282 -7.8125 7.1242 
